<svg width="6" height="6" viewBox="0 0 6 6" fill="none" xmlns="http://www.w3.org/2000/svg">
    <rect width="6" height="6" rx="1" fill="#372B23" />
    <path
        d="M3.48158 2.33333C3.3951 2.33659 3.30946 2.35156 3.227 2.37783C3.17718 2.39254 3.12646 2.40404 3.07517 2.41225C3.0545 2.29679 2.99393 2.19225 2.90404 2.1169C2.81414 2.04155 2.70063 2.00018 2.58333 2V2.16667C2.65551 2.16691 2.72565 2.19062 2.78318 2.23421C2.8407 2.2778 2.88249 2.33891 2.90225 2.40833C2.85693 2.40005 2.81198 2.3899 2.7675 2.37792C2.68143 2.35204 2.59246 2.33706 2.50267 2.33333C2.1925 2.33333 2 2.58875 2 3C2 3.62583 2.339 3.99992 2.66667 4H2.66683C2.73839 3.99621 2.80868 3.97955 2.87433 3.95083C2.91418 3.93295 2.95658 3.92142 3 3.91667C3.0435 3.92141 3.08599 3.93294 3.12592 3.95083C3.19154 3.97956 3.2618 3.99621 3.33333 4C3.66083 3.99992 4 3.62583 4 3C4 2.6925 3.86417 2.33333 3.48158 2.33333ZM3.33333 3.83333C3.28179 3.82895 3.23135 3.81588 3.18417 3.79467C3.12593 3.76893 3.06356 3.75381 3 3.75C2.93655 3.75382 2.8743 3.76895 2.81617 3.79467C2.76886 3.81587 2.71832 3.82894 2.66667 3.83333H2.66683C2.421 3.83325 2.16667 3.52158 2.16667 3C2.16667 2.84967 2.19942 2.5 2.50267 2.5C2.57843 2.50404 2.65343 2.51728 2.726 2.53942C2.80867 2.56414 2.894 2.57888 2.98017 2.58333H3.02108C3.10589 2.57929 3.18981 2.56427 3.27075 2.53867C3.33904 2.51662 3.40992 2.50362 3.48158 2.5C3.81633 2.5 3.83333 2.9165 3.83333 3C3.83333 3.52158 3.579 3.83325 3.33333 3.83333Z"
        fill="#FF813A" />
</svg>
    