<svg width="6" height="6" viewBox="0 0 6 6" fill="none" xmlns="http://www.w3.org/2000/svg">
    <rect width="6" height="6" rx="1" fill="#243627" />
    <path
        d="M3.3 3.375L3.6379 2.95263C3.6576 2.92801 3.68099 2.90848 3.70672 2.89516C3.73246 2.88184 3.76004 2.87499 3.7879 2.875H3.8C3.85304 2.875 3.90391 2.90134 3.94142 2.94822C3.97893 2.99511 4 3.0587 4 3.125C4 3.1913 3.97893 3.25489 3.94142 3.30178C3.90391 3.34866 3.85304 3.375 3.8 3.375H2.2C2.14696 3.375 2.09609 3.34866 2.05858 3.30178C2.02107 3.25489 2 3.1913 2 3.125C2 3.0587 2.02107 2.99511 2.05858 2.94822C2.09609 2.90134 2.14696 2.875 2.2 2.875H2.6515C2.8106 2.87501 2.96319 2.95401 3.0757 3.09462L3.3 3.375ZM2.1 3.375H3.9V3.625C3.9 3.72446 3.86839 3.81984 3.81213 3.89017C3.75587 3.96049 3.67956 4 3.6 4H2.4C2.32044 4 2.24413 3.96049 2.18787 3.89017C2.13161 3.81984 2.1 3.72446 2.1 3.625V3.375Z"
        stroke="#3AF758" stroke-width="0.3" stroke-linecap="round" stroke-linejoin="round" />
    <path
        d="M3 2C2.5377 2 2.1568 2.2195 2.1058 2.75C2.0992 2.81875 2.1448 2.875 2.2 2.875H3.8C3.8552 2.875 3.9008 2.81875 3.8942 2.75C3.8432 2.2195 3.4623 2 3 2Z"
        stroke="#3AF758" stroke-width="0.3" stroke-linecap="round" stroke-linejoin="round" />
</svg>
    