<svg width="6" height="6" viewBox="0 0 6 6" fill="none" xmlns="http://www.w3.org/2000/svg">
    <rect width="6" height="6" rx="1" fill="#262E37" />
    <path
        d="M2.58567 2.16659C2.79099 1.94447 3.20901 1.94447 3.41433 2.16659L3.53219 2.29396C3.78679 2.56943 3.94624 2.89292 3.99471 3.23236C4.01689 3.38779 3.9689 3.54442 3.85926 3.67441C3.74962 3.8044 3.58545 3.89933 3.39592 3.94231L3.27806 3.9691C3.09632 4.0103 2.90368 4.0103 2.72194 3.9691L2.60408 3.94231C2.41455 3.89933 2.25038 3.8044 2.14074 3.67441C2.0311 3.54442 1.98311 3.38779 2.00529 3.23236C2.0538 2.89291 2.2133 2.56941 2.46797 2.29396L2.58567 2.16659Z"
        stroke="#52A0FE" stroke-width="0.208333" />
</svg>
    