<svg width="6" height="6" viewBox="0 0 6 6" fill="none" xmlns="http://www.w3.org/2000/svg">
  <rect width="6" height="6" rx="1" fill="#263630" />
  <path
    d="M3.33333 2.0625C3.33333 2.17904 3.36198 2.28646 3.41927 2.38477C3.47656 2.48307 3.55903 2.57357 3.66667 2.65625C3.77431 2.73893 3.85677 2.82943 3.91406 2.92773C3.97135 3.02604 4 3.13346 4 3.25C4 3.31901 3.98828 3.38542 3.96484 3.44922C3.94141 3.51302 3.90755 3.57259 3.86328 3.62793C3.81901 3.68327 3.76693 3.73405 3.70703 3.78027C3.64714 3.8265 3.57986 3.86556 3.50521 3.89746C3.43056 3.92936 3.35069 3.95443 3.26563 3.97266C3.18056 3.99089 3.09201 4 3 4C2.90799 4 2.81944 3.99121 2.73438 3.97363C2.64931 3.95605 2.56988 3.93066 2.49609 3.89746C2.42231 3.86426 2.3546 3.8252 2.29297 3.78027C2.23134 3.73535 2.17925 3.6849 2.13672 3.62891C2.09418 3.57292 2.06076 3.51302 2.03646 3.44922C2.01215 3.38542 2 3.31901 2 3.25C2 3.19531 2.00781 3.1416 2.02344 3.08887C2.03906 3.03613 2.06163 2.98568 2.09115 2.9375C2.12066 2.88932 2.15712 2.84342 2.20052 2.7998C2.24392 2.75618 2.29297 2.7168 2.34766 2.68164C2.35373 2.70638 2.36198 2.73177 2.3724 2.75781C2.38281 2.78385 2.39497 2.8099 2.40885 2.83594C2.42274 2.86198 2.43924 2.88672 2.45833 2.91016C2.47743 2.93359 2.4974 2.9554 2.51823 2.97559C2.53559 2.99186 2.55816 3 2.58594 3C2.60938 3 2.62891 2.99382 2.64453 2.98145C2.66016 2.96908 2.6684 2.9541 2.66927 2.93652C2.66927 2.92936 2.66797 2.92285 2.66536 2.91699C2.66276 2.91113 2.65842 2.90527 2.65234 2.89941C2.62804 2.87272 2.60677 2.84635 2.58854 2.82031C2.57031 2.79427 2.55425 2.76758 2.54036 2.74023C2.52648 2.71289 2.51649 2.68457 2.51042 2.65527C2.50434 2.62598 2.50087 2.59505 2.5 2.5625C2.5 2.48503 2.51953 2.41211 2.55859 2.34375C2.59766 2.27539 2.65148 2.21582 2.72005 2.16504C2.78863 2.11426 2.86806 2.07422 2.95833 2.04492C3.04861 2.01562 3.14583 2.00065 3.25 2H3.33333V2.0625ZM3 3.875C3.11545 3.875 3.22352 3.85872 3.32422 3.82617C3.42491 3.79362 3.51345 3.74902 3.58984 3.69238C3.66623 3.63574 3.72569 3.56966 3.76823 3.49414C3.81076 3.41862 3.83247 3.33724 3.83333 3.25C3.83333 3.15169 3.80903 3.06022 3.76042 2.97559C3.71181 2.89095 3.64149 2.81413 3.54948 2.74512C3.43663 2.65983 3.34809 2.56576 3.28385 2.46289C3.21962 2.36003 3.18142 2.2487 3.16927 2.12891C3.09722 2.13607 3.03082 2.15234 2.97005 2.17773C2.90929 2.20312 2.8559 2.23535 2.8099 2.27441C2.76389 2.31348 2.72873 2.35742 2.70443 2.40625C2.68012 2.45508 2.66753 2.50716 2.66667 2.5625C2.66667 2.61328 2.67665 2.65918 2.69661 2.7002C2.71658 2.74121 2.74609 2.78223 2.78516 2.82324C2.80165 2.84017 2.81424 2.85775 2.82292 2.87598C2.8316 2.89421 2.83637 2.91439 2.83724 2.93652C2.83724 2.96257 2.83073 2.98698 2.81771 3.00977C2.80469 3.03255 2.78646 3.05241 2.76302 3.06934C2.73958 3.08626 2.71311 3.09993 2.68359 3.11035C2.65408 3.12077 2.62153 3.12565 2.58594 3.125C2.54601 3.125 2.51085 3.11947 2.48047 3.1084C2.45009 3.09733 2.42318 3.08236 2.39974 3.06348C2.3763 3.0446 2.35547 3.02344 2.33724 3C2.31901 2.97656 2.30165 2.95312 2.28516 2.92969C2.24523 2.97721 2.21571 3.02832 2.19661 3.08301C2.17752 3.1377 2.16753 3.19336 2.16667 3.25C2.16667 3.33659 2.18837 3.41764 2.23177 3.49316C2.27517 3.56868 2.33464 3.63509 2.41016 3.69238C2.48568 3.74967 2.57378 3.79427 2.67448 3.82617C2.77517 3.85807 2.88368 3.87435 3 3.875Z"
    fill="#53F0B8" />
</svg>
  